# xmcd
#
# Track frame offsets:
#	150
#	15167
#	29200
#	45937
#	63522
#	80505
#	95317
#	109775
#	129867
#	142092
#	159077
#	174007
#	190997
#	208322
#	222847
#	246315
#
# Disc length: 3478 seconds
#
# Revision: 1
# Processed by: cddbd v1.4PL0 Copyright (c) Steve Scherf et al.
# Submitted via: audiograbber 1.80
#
DISCID=d30d9410
DTITLE=Brunner and Brunner - Liebeslieder
DYEAR=1900
DGENRE=
TTITLE0=Liebe kann so viel verzeihen
TTITLE1=Mein weg führt nur zu Dir
TTITLE2=Schritte von nebenan
TTITLE3=Du und ich
TTITLE4=Wenn ich Deine Liebe spür
TTITLE5=Baby Blue
TTITLE6=Immer nur Du
TTITLE7=Darum lieb ich Dich
TTITLE8=Deine Augen sagen mir, daß Du mich liebst
TTITLE9=Du bist der Tag in meiner Nacht
TTITLE10=Eis im Vulkan
TTITLE11=Shanana (laß´uns leben)
TTITLE12=Unsere große Zeit
TTITLE13=Und da kommst Du einfach daher
TTITLE14=Im Namen der Liebe
TTITLE15=Die letzte Nacht
EXTD=
EXTT0=
EXTT1=
EXTT2=
EXTT3=
EXTT4=
EXTT5=
EXTT6=
EXTT7=
EXTT8=
EXTT9=
EXTT10=
EXTT11=
EXTT12=
EXTT13=
EXTT14=
EXTT15=
PLAYORDER=
